 <svg class="app-logo" width="40" height="40" viewBox="0 0 24 24" fill="none" xmlns="http://www.w3.org/2000/svg">
          <path
            d="M12 22C17.5228 22 22 17.5228 22 12C22 6.47715 17.5228 2 12 2C6.47715 2 2 6.47715 2 12C2 17.5228 6.47715 22 12 22Z"
            stroke="url(#paint0_linear)" stroke-width="2" stroke-linecap="round" />
          <path
            d="M12 16C14.2091 16 16 14.2091 16 12C16 9.79086 14.2091 8 12 8C9.79086 8 8 9.79086 8 12C8 14.2091 9.79086 16 12 16Z"
            fill="url(#paint1_linear)" fill-opacity="0.5" />
          <path d="M12 12V6M12 12L16.24 16.24M12 12L7.76 16.24" stroke="url(#paint2_linear)" stroke-width="2"
            stroke-linecap="round" />
          <defs>
            <linearGradient id="paint0_linear" x1="2" y1="2" x2="22" y2="22" gradientUnits="userSpaceOnUse">
              <stop stop-color="#FF9F4A" />
              <stop offset="1" stop-color="#FF5D00" />
            </linearGradient>
            <linearGradient id="paint1_linear" x1="12" y1="8" x2="12" y2="16" gradientUnits="userSpaceOnUse">
              <stop stop-color="#FF9F4A" />
              <stop offset="1" stop-color="#FF5D00" />
            </linearGradient>
            <linearGradient id="paint2_linear" x1="12" y1="6" x2="12" y2="16.24" gradientUnits="userSpaceOnUse">
              <stop stop-color="#FF9F4A" />
              <stop offset="1" stop-color="#FF5D00" />
            </linearGradient>
          </defs>
        </svg>